<svg width="210" height="44" viewBox="0 0 210 44" fill="none" xmlns="http://www.w3.org/2000/svg">
<path d="M108.015 35.6497H115.073L108.119 26.1585L113.894 19.3914L120.678 35.3716L120.122 36.797C119.843 37.5387 119.507 38.1066 119.113 38.5006C118.719 38.9178 118.082 39.1264 117.201 39.1264C116.923 39.1264 116.61 39.0916 116.262 39.0221C115.938 38.9757 115.637 38.9062 115.358 38.8135L114.733 43.6112C115.15 43.7271 115.637 43.8198 116.193 43.8893C116.772 43.9589 117.329 43.9936 117.862 43.9936C118.951 43.9936 119.89 43.8662 120.678 43.6112C121.489 43.3563 122.184 42.9738 122.764 42.4639C123.367 41.9772 123.876 41.3746 124.294 40.6561C124.734 39.9608 125.128 39.1611 125.476 38.2572L133.229 18.3362H127.179L123.737 29.4614H123.633L119.774 18.3362H114.795L114.795 18.3361H107.876L102.348 25.3589H102.244V9.36644H96.5071V35.6497H102.244V27.3406H102.348L108.015 35.6497Z" fill="white"/>
<path d="M94.6483 26.9234C94.6483 28.1286 94.4629 29.2875 94.0921 30.4C93.7212 31.5125 93.1765 32.4976 92.458 33.3551C91.7626 34.1895 90.905 34.8617 89.8852 35.3716C88.8653 35.8815 87.7064 36.1364 86.4084 36.1364C85.2495 36.1364 84.1486 35.9047 83.1055 35.4411C82.0857 34.9544 81.2976 34.2706 80.7414 33.3899H80.6718V35.6497H75.4219V9.36644H81.1238V20.1787H81.1933C81.6801 19.5993 82.3638 19.0662 83.2446 18.5795C84.1254 18.0928 85.2032 17.8494 86.478 17.8494C87.7296 17.8494 88.8538 18.0928 89.8504 18.5795C90.8703 19.0662 91.7279 19.7268 92.4232 20.5612C93.1417 21.3956 93.6864 22.369 94.0573 23.4815C94.4513 24.5709 94.6483 25.7182 94.6483 26.9234ZM89.1551 26.9234C89.1551 26.3671 89.0624 25.8225 88.8769 25.2894C88.7147 24.7563 88.4597 24.2927 88.1121 23.8987C87.7644 23.4815 87.3356 23.1455 86.8257 22.8905C86.3157 22.6356 85.7247 22.5081 85.0525 22.5081C84.4035 22.5081 83.8241 22.6356 83.3141 22.8905C82.8042 23.1455 82.3638 23.4815 81.993 23.8987C81.6453 24.3159 81.3672 24.7911 81.1586 25.3241C80.9731 25.8572 80.8804 26.4019 80.8804 26.9581C80.8804 27.5144 80.9731 28.0591 81.1586 28.5922C81.3672 29.1252 81.6453 29.6004 81.993 30.0176C82.3638 30.4348 82.8042 30.7708 83.3141 31.0258C83.8241 31.2808 84.4035 31.4082 85.0525 31.4082C85.7247 31.4082 86.3157 31.2808 86.8257 31.0258C87.3356 30.7708 87.7644 30.4348 88.1121 30.0176C88.4597 29.6004 88.7147 29.1252 88.8769 28.5922C89.0624 28.0359 89.1551 27.4796 89.1551 26.9234Z" fill="white"/>
<path d="M67.1979 35.6498V33.2509H67.1284C66.9198 33.6449 66.6417 34.0157 66.294 34.3634C65.9695 34.7111 65.5755 35.0124 65.1119 35.2673C64.6715 35.5223 64.1732 35.7309 63.6169 35.8931C63.0838 36.0554 62.5159 36.1365 61.9133 36.1365C60.7544 36.1365 59.7693 35.9279 58.9581 35.5107C58.17 35.0935 57.521 34.5604 57.0111 33.9114C56.5243 33.2393 56.1651 32.486 55.9333 31.6516C55.7247 30.7941 55.6204 29.9249 55.6204 29.0442V18.3362H61.357V27.7231C61.357 28.2098 61.3918 28.6733 61.4613 29.1137C61.5309 29.5541 61.6583 29.9481 61.8438 30.2958C62.0524 30.6434 62.3189 30.9216 62.6434 31.1302C62.9679 31.3156 63.3967 31.4083 63.9298 31.4083C64.9265 31.4083 65.6798 31.0374 66.1897 30.2958C66.7228 29.5541 66.9893 28.6849 66.9893 27.6883V18.3362H72.6912V35.6498H67.1979Z" fill="white"/>
<path d="M54.7409 18.6143C54.7409 20.0513 54.4744 21.2681 53.9413 22.2647C53.4082 23.2382 52.6896 24.0262 51.7857 24.6288C50.8817 25.2314 49.8387 25.6718 48.6566 25.9499C47.4745 26.2281 46.2461 26.3671 44.9713 26.3671H42.016V35.6497H36.0708V11.0352H45.1103C46.4547 11.0352 47.7063 11.1743 48.8652 11.4524C50.0473 11.7074 51.0672 12.1361 51.9248 12.7388C52.8055 13.3182 53.4893 14.0946 53.976 15.0681C54.4859 16.0184 54.7409 17.2004 54.7409 18.6143ZM48.7957 18.649C48.7957 18.0696 48.6798 17.5944 48.448 17.2236C48.2162 16.8528 47.9033 16.563 47.5093 16.3545C47.1153 16.1459 46.6633 16.0068 46.1534 15.9373C45.6666 15.8677 45.1567 15.833 44.6236 15.833H42.016V21.6389H44.5193C45.0756 21.6389 45.6087 21.5926 46.1186 21.4999C46.6285 21.4071 47.0805 21.2449 47.4745 21.0131C47.8917 20.7814 48.2162 20.48 48.448 20.1092C48.6798 19.7152 48.7957 19.2285 48.7957 18.649Z" fill="white"/>
<path d="M206.722 26.2686C206.652 24.7396 206.154 23.477 205.227 22.4809C204.324 21.4615 203.026 20.9519 201.335 20.9519C200.547 20.9519 199.818 21.1025 199.146 21.4036C198.474 21.6816 197.883 22.0755 197.373 22.5851C196.864 23.0716 196.458 23.6392 196.157 24.2879C195.856 24.9134 195.682 25.5736 195.636 26.2686H206.722ZM209.119 27.0331C209.119 27.1953 209.119 27.369 209.119 27.5544C209.119 27.7397 209.108 27.9366 209.085 28.1451H195.601C195.624 28.956 195.786 29.7205 196.088 30.4386C196.389 31.1568 196.806 31.7823 197.339 32.3151C197.872 32.848 198.497 33.2765 199.215 33.6009C199.933 33.902 200.71 34.0526 201.544 34.0526C202.771 34.0526 203.826 33.7746 204.706 33.2186C205.609 32.6395 206.293 31.9792 206.756 31.2379L208.529 32.6279C207.556 33.8557 206.478 34.736 205.297 35.2689C204.138 35.8017 202.887 36.0681 201.544 36.0681C200.339 36.0681 199.215 35.8596 198.173 35.4426C197.153 35.0025 196.273 34.4001 195.532 33.6356C194.79 32.8711 194.199 31.9676 193.759 30.9251C193.342 29.8826 193.134 28.7475 193.134 27.5196C193.134 26.2918 193.342 25.1566 193.759 24.1141C194.176 23.0716 194.756 22.1681 195.497 21.4036C196.238 20.6391 197.107 20.0484 198.103 19.6314C199.099 19.1912 200.177 18.9711 201.335 18.9711C202.609 18.9711 203.733 19.1912 204.706 19.6314C205.679 20.0484 206.49 20.6275 207.139 21.3689C207.787 22.087 208.274 22.9326 208.598 23.9056C208.946 24.8786 209.119 25.9211 209.119 27.0331Z" fill="white"/>
<path d="M183.794 22.9674C183.794 22.5272 183.782 21.9596 183.759 21.2646C183.736 20.5696 183.701 19.9441 183.655 19.3881H185.914C185.96 19.8283 185.995 20.3148 186.018 20.8476C186.041 21.3805 186.053 21.8206 186.053 22.1681H186.122C186.586 21.2183 187.281 20.4538 188.207 19.8746C189.134 19.2723 190.177 18.9711 191.335 18.9711C191.636 18.9711 191.903 18.9827 192.134 19.0059C192.389 19.029 192.644 19.0754 192.899 19.1449L192.586 21.3689C192.447 21.3225 192.215 21.2762 191.891 21.2299C191.567 21.1835 191.242 21.1604 190.918 21.1604C190.292 21.1604 189.69 21.2762 189.111 21.5079C188.532 21.7395 188.022 22.1102 187.582 22.6199C187.165 23.1064 186.817 23.7435 186.539 24.5311C186.284 25.2956 186.157 26.2223 186.157 27.3111V35.6511H183.794V22.9674Z" fill="white"/>
<path d="M180.099 27.5196C180.099 28.7475 179.879 29.8826 179.438 30.9251C179.021 31.9676 178.431 32.8711 177.666 33.6356C176.902 34.4001 175.986 35.0025 174.921 35.4426C173.855 35.8596 172.685 36.0681 171.411 36.0681C170.16 36.0681 169.001 35.8596 167.936 35.4426C166.87 35.0025 165.955 34.4001 165.19 33.6356C164.426 32.8711 163.824 31.9676 163.383 30.9251C162.966 29.8826 162.758 28.7475 162.758 27.5196C162.758 26.2918 162.966 25.1566 163.383 24.1141C163.824 23.0716 164.426 22.1681 165.19 21.4036C165.955 20.6391 166.87 20.0484 167.936 19.6314C169.001 19.1912 170.16 18.9711 171.411 18.9711C172.685 18.9711 173.855 19.1912 174.921 19.6314C175.986 20.0484 176.902 20.6391 177.666 21.4036C178.431 22.1681 179.021 23.0716 179.438 24.1141C179.879 25.1566 180.099 26.2918 180.099 27.5196ZM177.597 27.5196C177.597 26.6161 177.446 25.7705 177.145 24.9829C176.867 24.172 176.461 23.477 175.929 22.8979C175.396 22.2955 174.747 21.8206 173.982 21.4731C173.218 21.1256 172.361 20.9519 171.411 20.9519C170.461 20.9519 169.604 21.1256 168.839 21.4731C168.098 21.8206 167.461 22.2955 166.928 22.8979C166.395 23.477 165.978 24.172 165.677 24.9829C165.399 25.7705 165.26 26.6161 165.26 27.5196C165.26 28.4231 165.399 29.2803 165.677 30.0911C165.978 30.8788 166.395 31.5738 166.928 32.1761C167.461 32.7553 168.098 33.2186 168.839 33.5661C169.604 33.8905 170.461 34.0526 171.411 34.0526C172.361 34.0526 173.218 33.8905 173.982 33.5661C174.747 33.2186 175.396 32.7553 175.929 32.1761C176.461 31.5738 176.867 30.8788 177.145 30.0911C177.446 29.2803 177.597 28.4231 177.597 27.5196Z" fill="white"/>
<path d="M161.576 31.6896C161.159 32.3151 160.649 32.9059 160.047 33.4619C159.468 34.0179 158.784 34.5044 157.996 34.9214C157.232 35.3384 156.375 35.6627 155.425 35.8944C154.498 36.1492 153.479 36.2766 152.367 36.2766C150.513 36.2766 148.799 35.9523 147.224 35.3036C145.648 34.655 144.293 33.7631 143.158 32.6279C142.022 31.4696 141.131 30.1027 140.482 28.5274C139.856 26.9521 139.544 25.2261 139.544 23.3496C139.544 21.4731 139.868 19.7472 140.517 18.1719C141.165 16.5966 142.057 15.2413 143.192 14.1061C144.351 12.9478 145.706 12.0443 147.258 11.3956C148.834 10.747 150.537 10.4226 152.367 10.4226C153.27 10.4226 154.151 10.5153 155.008 10.7006C155.888 10.886 156.711 11.1524 157.475 11.4999C158.24 11.8242 158.935 12.2296 159.56 12.7161C160.186 13.1795 160.707 13.7123 161.124 14.3146L159.039 15.8436C158.784 15.4498 158.437 15.056 157.996 14.6621C157.579 14.2683 157.081 13.9208 156.502 13.6196C155.923 13.3185 155.286 13.0752 154.591 12.8899C153.919 12.7046 153.189 12.6119 152.402 12.6119C150.803 12.6119 149.367 12.9015 148.092 13.4806C146.841 14.0598 145.776 14.8475 144.895 15.8436C144.015 16.8166 143.343 17.9518 142.88 19.2491C142.416 20.5465 142.185 21.9133 142.185 23.3496C142.185 24.786 142.416 26.1528 142.88 27.4501C143.366 28.7475 144.05 29.8942 144.93 30.8904C145.81 31.8634 146.876 32.6395 148.127 33.2186C149.401 33.7978 150.826 34.0874 152.402 34.0874C153.815 34.0874 155.158 33.7978 156.433 33.2186C157.707 32.6395 158.773 31.7128 159.63 30.4386L161.576 31.6896Z" fill="white"/>
<path fill-rule="evenodd" clip-rule="evenodd" d="M11.6722 0L8.85081 3.6968L5.21733 1.40989L4.21715 5.26089L0 4.37575L3.8359 10.6371C5.92708 8.80215 8.66823 7.68955 11.6686 7.68865V7.68871H11.6759V7.68865C14.6763 7.68956 17.4174 8.80217 19.5086 10.6372L23.3445 4.37575L19.1273 5.26089L18.1271 1.40989L14.4937 3.6968L11.6759 0.00484788V0.00479665L11.6752 0.0038624L11.6722 0ZM11.6722 10.6298C6.73449 10.6298 2.73141 14.6297 2.73141 19.564C2.73141 21.6993 3.48179 23.6576 4.72872 25.1919L1.30829 35.6441H22.0362L18.6157 25.1919C19.8627 23.6576 20.6131 21.6993 20.6131 19.564C20.6131 14.6297 16.61 10.6298 11.6722 10.6298ZM16.4022 19.5641C16.4022 16.954 14.2847 14.8379 11.6723 14.8379H11.6722C9.05981 14.8379 6.94229 16.954 6.94229 19.5641C6.94229 21.373 7.95926 22.9449 9.45414 23.7395L9.60766 23.8211L7.11567 31.4362H16.2288L13.7368 23.8211L13.8903 23.7395C15.3852 22.9449 16.4022 21.373 16.4022 19.5641Z" fill="white"/>
</svg>
